<svg xmlns="http://www.w3.org/2000/svg" style="display:none">

<!-- America: Eagle -->
<symbol id="civ-america" viewBox="0 0 64 64">
  <circle cx="32" cy="32" r="30" fill="#1a3a6b"/>
  <path d="M32 12 L36 22 L46 22 L38 28 L41 38 L32 32 L23 38 L26 28 L18 22 L28 22 Z" fill="#c9a227"/>
  <path d="M24 40 L32 36 L40 40 L40 48 C36 52 28 52 24 48 Z" fill="#e8e6e3"/>
</symbol>

<!-- Aztec: Sun Stone -->
<symbol id="civ-aztec" viewBox="0 0 64 64">
  <circle cx="32" cy="32" r="30" fill="#5c3317"/>
  <circle cx="32" cy="32" r="18" fill="none" stroke="#c9a227" stroke-width="3"/>
  <circle cx="32" cy="32" r="8" fill="#c9a227"/>
  <path d="M32 14 L34 20 L30 20 Z M32 50 L34 44 L30 44 Z M14 32 L20 30 L20 34 Z M50 32 L44 30 L44 34 Z" fill="#c9a227"/>
  <path d="M21 21 L25 25 L23 27 Z M43 21 L39 25 L41 27 Z M21 43 L25 39 L23 37 Z M43 43 L39 39 L41 37 Z" fill="#e6c545"/>
</symbol>

<!-- Brazil: Green diamond -->
<symbol id="civ-brazil" viewBox="0 0 64 64">
  <circle cx="32" cy="32" r="30" fill="#006b3f"/>
  <polygon points="32,14 50,32 32,50 14,32" fill="#c9a227"/>
  <circle cx="32" cy="32" r="9" fill="#1a3a6b"/>
  <path d="M26 32 Q32 28 38 32" fill="none" stroke="#e8e6e3" stroke-width="1.5"/>
</symbol>

<!-- Canada: Maple Leaf -->
<symbol id="civ-canada" viewBox="0 0 64 64">
  <circle cx="32" cy="32" r="30" fill="#c41e3a"/>
  <path d="M32 14 L34 22 L40 18 L38 24 L46 26 L40 30 L44 36 L36 34 L32 44 L28 34 L20 36 L24 30 L18 26 L26 24 L24 18 L30 22 Z" fill="#e8e6e3"/>
</symbol>

<!-- China: Dragon/Yin-Yang -->
<symbol id="civ-china" viewBox="0 0 64 64">
  <circle cx="32" cy="32" r="30" fill="#8b0000"/>
  <circle cx="32" cy="32" r="16" fill="none" stroke="#c9a227" stroke-width="2"/>
  <path d="M32 16 A16 16 0 0 1 32 48 A8 8 0 0 1 32 32 A8 8 0 0 0 32 16" fill="#c9a227"/>
  <circle cx="32" cy="24" r="3" fill="#8b0000"/>
  <circle cx="32" cy="40" r="3" fill="#c9a227"/>
</symbol>

<!-- Cree: Buffalo -->
<symbol id="civ-cree" viewBox="0 0 64 64">
  <circle cx="32" cy="32" r="30" fill="#4a3728"/>
  <ellipse cx="32" cy="34" rx="14" ry="10" fill="#c9a227"/>
  <circle cx="32" cy="26" r="8" fill="#c9a227"/>
  <path d="M22 22 Q20 18 18 20 M42 22 Q44 18 46 20" fill="none" stroke="#c9a227" stroke-width="2.5" stroke-linecap="round"/>
</symbol>

<!-- Egypt: Ankh -->
<symbol id="civ-egypt" viewBox="0 0 64 64">
  <circle cx="32" cy="32" r="30" fill="#1a4a6b"/>
  <ellipse cx="32" cy="20" rx="7" ry="8" fill="none" stroke="#c9a227" stroke-width="3"/>
  <rect x="30" y="28" width="4" height="20" fill="#c9a227"/>
  <rect x="24" y="34" width="16" height="4" fill="#c9a227"/>
</symbol>

<!-- England: Tudor Rose -->
<symbol id="civ-england" viewBox="0 0 64 64">
  <circle cx="32" cy="32" r="30" fill="#1a3a6b"/>
  <path d="M32 18 L35 26 L32 24 L29 26 Z" fill="#c9a227"/>
  <path d="M32 46 L35 38 L32 40 L29 38 Z" fill="#c9a227"/>
  <path d="M18 32 L26 29 L24 32 L26 35 Z" fill="#c9a227"/>
  <path d="M46 32 L38 29 L40 32 L38 35 Z" fill="#c9a227"/>
  <path d="M22 22 L28 27 L26 28 L27 26 Z" fill="#c9a227"/>
  <path d="M42 22 L36 27 L38 28 L37 26 Z" fill="#c9a227"/>
  <path d="M22 42 L28 37 L26 36 L27 38 Z" fill="#c9a227"/>
  <path d="M42 42 L36 37 L38 36 L37 38 Z" fill="#c9a227"/>
  <circle cx="32" cy="32" r="5" fill="#c41e3a"/>
</symbol>

<!-- France: Fleur-de-lis -->
<symbol id="civ-france" viewBox="0 0 64 64">
  <circle cx="32" cy="32" r="30" fill="#1a3a6b"/>
  <path d="M32 14 C32 14 28 22 28 28 C28 32 30 34 32 34 C34 34 36 32 36 28 C36 22 32 14 32 14 Z" fill="#c9a227"/>
  <path d="M20 30 C20 30 24 26 28 28 C30 29 30 32 28 34 C26 36 22 34 20 30 Z" fill="#c9a227"/>
  <path d="M44 30 C44 30 40 26 36 28 C34 29 34 32 36 34 C38 36 42 34 44 30 Z" fill="#c9a227"/>
  <rect x="28" y="34" width="8" height="4" rx="1" fill="#c9a227"/>
  <rect x="30" y="38" width="4" height="10" fill="#c9a227"/>
  <rect x="26" y="44" width="12" height="3" rx="1" fill="#c9a227"/>
</symbol>

<!-- Georgia: St George Cross -->
<symbol id="civ-georgia" viewBox="0 0 64 64">
  <circle cx="32" cy="32" r="30" fill="#e8e6e3"/>
  <rect x="29" y="12" width="6" height="40" fill="#c41e3a"/>
  <rect x="12" y="29" width="40" height="6" fill="#c41e3a"/>
  <circle cx="20" cy="20" r="3" fill="#c41e3a"/>
  <circle cx="44" cy="20" r="3" fill="#c41e3a"/>
  <circle cx="20" cy="44" r="3" fill="#c41e3a"/>
  <circle cx="44" cy="44" r="3" fill="#c41e3a"/>
</symbol>

<!-- Germany: Iron Cross -->
<symbol id="civ-germany" viewBox="0 0 64 64">
  <circle cx="32" cy="32" r="30" fill="#2a2a2a"/>
  <path d="M28 14 L36 14 L34 26 L42 18 L46 22 L38 30 L50 28 L50 36 L38 34 L46 42 L42 46 L34 38 L36 50 L28 50 L30 38 L22 46 L18 42 L26 34 L14 36 L14 28 L26 30 L18 22 L22 18 L30 26 Z" fill="#c9a227"/>
</symbol>

<!-- Greece: Column -->
<symbol id="civ-greece" viewBox="0 0 64 64">
  <circle cx="32" cy="32" r="30" fill="#2a5a82"/>
  <rect x="22" y="14" width="20" height="4" fill="#e8e6e3"/>
  <rect x="24" y="18" width="3" height="26" fill="#e8e6e3"/>
  <rect x="30.5" y="18" width="3" height="26" fill="#e8e6e3"/>
  <rect x="37" y="18" width="3" height="26" fill="#e8e6e3"/>
  <rect x="22" y="44" width="20" height="4" fill="#e8e6e3"/>
  <polygon points="22,14 42,14 44,10 20,10" fill="#e8e6e3"/>
</symbol>

<!-- Hungary: Double Cross -->
<symbol id="civ-hungary" viewBox="0 0 64 64">
  <circle cx="32" cy="32" r="30" fill="#006b3f"/>
  <rect x="30" y="16" width="4" height="32" fill="#e8e6e3"/>
  <rect x="24" y="22" width="16" height="4" fill="#e8e6e3"/>
  <rect x="24" y="30" width="16" height="4" fill="#e8e6e3"/>
  <polygon points="32,12 28,16 36,16" fill="#c9a227"/>
</symbol>

<!-- India: Chakra Wheel -->
<symbol id="civ-india" viewBox="0 0 64 64">
  <circle cx="32" cy="32" r="30" fill="#ff9933"/>
  <circle cx="32" cy="32" r="12" fill="none" stroke="#1a3a6b" stroke-width="2.5"/>
  <circle cx="32" cy="32" r="3" fill="#1a3a6b"/>
  <g stroke="#1a3a6b" stroke-width="1.5">
    <line x1="32" y1="20" x2="32" y2="44"/>
    <line x1="20" y1="32" x2="44" y2="32"/>
    <line x1="23.5" y1="23.5" x2="40.5" y2="40.5"/>
    <line x1="40.5" y1="23.5" x2="23.5" y2="40.5"/>
  </g>
</symbol>

<!-- Indonesia: Kris/Garuda -->
<symbol id="civ-indonesia" viewBox="0 0 64 64">
  <circle cx="32" cy="32" r="30" fill="#8b0000"/>
  <path d="M32 14 L38 22 L44 20 L40 28 L48 32 L40 36 L44 44 L38 42 L32 50 L26 42 L20 44 L24 36 L16 32 L24 28 L20 20 L26 22 Z" fill="#c9a227"/>
  <circle cx="32" cy="32" r="5" fill="#8b0000"/>
</symbol>

<!-- Japan: Chrysanthemum -->
<symbol id="civ-japan" viewBox="0 0 64 64">
  <circle cx="32" cy="32" r="30" fill="#e8e6e3"/>
  <circle cx="32" cy="32" r="6" fill="#c41e3a"/>
  <g fill="#c41e3a">
    <ellipse cx="32" cy="18" rx="3" ry="8" transform="rotate(0,32,32)"/>
    <ellipse cx="32" cy="18" rx="3" ry="8" transform="rotate(22.5,32,32)"/>
    <ellipse cx="32" cy="18" rx="3" ry="8" transform="rotate(45,32,32)"/>
    <ellipse cx="32" cy="18" rx="3" ry="8" transform="rotate(67.5,32,32)"/>
    <ellipse cx="32" cy="18" rx="3" ry="8" transform="rotate(90,32,32)"/>
    <ellipse cx="32" cy="18" rx="3" ry="8" transform="rotate(112.5,32,32)"/>
    <ellipse cx="32" cy="18" rx="3" ry="8" transform="rotate(135,32,32)"/>
    <ellipse cx="32" cy="18" rx="3" ry="8" transform="rotate(157.5,32,32)"/>
  </g>
</symbol>

<!-- Korea: Taegeuk -->
<symbol id="civ-korea" viewBox="0 0 64 64">
  <circle cx="32" cy="32" r="30" fill="#1a3a6b"/>
  <circle cx="32" cy="32" r="14" fill="#c41e3a"/>
  <path d="M32 18 A14 14 0 0 1 32 46 A7 7 0 0 1 32 32 A7 7 0 0 0 32 18" fill="#2a5a82"/>
  <g stroke="#c9a227" stroke-width="2" stroke-linecap="round">
    <line x1="44" y1="18" x2="50" y2="14"/>
    <line x1="46" y1="20" x2="52" y2="16"/>
    <line x1="14" y1="48" x2="20" y2="44"/>
    <line x1="12" y1="46" x2="18" y2="42"/>
  </g>
</symbol>

<!-- Macedon: Vergina Sun -->
<symbol id="civ-macedon" viewBox="0 0 64 64">
  <circle cx="32" cy="32" r="30" fill="#4a1a6b"/>
  <circle cx="32" cy="32" r="5" fill="#c9a227"/>
  <g fill="#c9a227">
    <polygon points="32,10 34,24 30,24"/>
    <polygon points="32,54 34,40 30,40"/>
    <polygon points="10,32 24,30 24,34"/>
    <polygon points="54,32 40,30 40,34"/>
    <polygon points="16,16 26,26 24,28"/>
    <polygon points="48,16 38,26 40,28"/>
    <polygon points="16,48 26,38 28,40"/>
    <polygon points="48,48 38,38 36,40"/>
  </g>
</symbol>

</svg>
