<svg xmlns="http://www.w3.org/2000/svg" style="display:none">

<!-- Suleiman: Ottoman turban -->
<symbol id="leader-suleiman" viewBox="0 0 64 64">
  <circle cx="32" cy="32" r="30" fill="#c41e3a"/>
  <circle cx="32" cy="28" r="8" fill="#e8e6e3"/>
  <path d="M24 36 Q32 40 40 36 L42 48 L22 48 Z" fill="#c9a227"/>
  <path d="M24 22 Q32 10 40 22" fill="#e8e6e3"/>
  <path d="M26 22 Q32 14 38 22" fill="#c9a227"/>
  <circle cx="32" cy="16" r="2.5" fill="#c41e3a"/>
  <path d="M30 16 L32 12 L34 16" fill="#e8e6e3"/>
</symbol>

<!-- Cyrus: Persian crown -->
<symbol id="leader-cyrus" viewBox="0 0 64 64">
  <circle cx="32" cy="32" r="30" fill="#4a1a6b"/>
  <circle cx="32" cy="28" r="8" fill="#e8e6e3"/>
  <path d="M24 36 Q32 40 40 36 L42 48 L22 48 Z" fill="#4a1a6b"/>
  <path d="M24 20 L26 14 L30 18 L32 12 L34 18 L38 14 L40 20" fill="#c9a227"/>
  <path d="M28 32 Q32 36 36 32" fill="#2a2a2a"/>
  <path d="M24 20 L40 20" stroke="#c9a227" stroke-width="2"/>
</symbol>

<!-- Shaka: Zulu headdress -->
<symbol id="leader-shaka" viewBox="0 0 64 64">
  <circle cx="32" cy="32" r="30" fill="#2a2a2a"/>
  <circle cx="32" cy="28" r="8" fill="#8b5e3c"/>
  <path d="M24 36 Q32 40 40 36 L42 48 L22 48 Z" fill="#4a3728"/>
  <path d="M20 20 L24 24 M44 20 L40 24" stroke="#e8e6e3" stroke-width="2"/>
  <path d="M22 18 Q32 8 42 18" fill="none" stroke="#e8e6e3" stroke-width="2.5"/>
  <circle cx="32" cy="14" r="2" fill="#c9a227"/>
  <path d="M26 16 L32 10 L38 16" fill="none" stroke="#c9a227" stroke-width="1.5"/>
</symbol>

<!-- Pedro II: Imperial crown + beard -->
<symbol id="leader-pedro" viewBox="0 0 64 64">
  <circle cx="32" cy="32" r="30" fill="#006b3f"/>
  <circle cx="32" cy="26" r="8" fill="#e8e6e3"/>
  <path d="M24 34 Q32 38 40 34 L42 48 L22 48 Z" fill="#006b3f"/>
  <path d="M26 30 Q32 36 38 30" fill="#4a3728"/>
  <path d="M26 16 Q32 10 38 16" fill="#c9a227"/>
  <rect x="26" y="16" width="12" height="3" fill="#c9a227"/>
  <circle cx="32" cy="12" r="2" fill="#c9a227"/>
  <path d="M30 16 L30 14 M34 16 L34 14" stroke="#006b3f" stroke-width="1"/>
</symbol>

<!-- Li Shimin (Tang): Tang emperor hat -->
<symbol id="leader-li_shimin" viewBox="0 0 64 64">
  <circle cx="32" cy="32" r="30" fill="#8b0000"/>
  <circle cx="32" cy="28" r="8" fill="#e8e6e3"/>
  <path d="M24 36 Q32 40 40 36 L42 48 L22 48 Z" fill="#c9a227"/>
  <rect x="24" y="18" width="16" height="5" fill="#2a2a2a"/>
  <path d="M24 18 L20 16 M40 18 L44 16" stroke="#2a2a2a" stroke-width="2"/>
  <path d="M22 16 L18 18 M42 16 L46 18" stroke="#c9a227" stroke-width="1.5"/>
  <circle cx="32" cy="20" r="1.5" fill="#c9a227"/>
</symbol>

<!-- Zhuge Liang (Shu Han): Feather fan + Taoist hat -->
<symbol id="leader-zhuge_liang" viewBox="0 0 64 64">
  <circle cx="32" cy="32" r="30" fill="#2a5a82"/>
  <circle cx="32" cy="26" r="8" fill="#e8e6e3"/>
  <path d="M24 34 Q32 38 40 34 L42 48 L22 48 Z" fill="#e8e6e3"/>
  <path d="M26 18 Q32 12 38 18" fill="#2a2a2a"/>
  <path d="M32 12 L32 8" stroke="#2a2a2a" stroke-width="2"/>
  <path d="M44 36 L48 32 L50 34 L46 38" fill="#e8e6e3"/>
  <path d="M44 36 L50 30" stroke="#c9a227" stroke-width="1"/>
</symbol>

<!-- Basil II (Byzantium): Byzantine crown -->
<symbol id="leader-basil" viewBox="0 0 64 64">
  <circle cx="32" cy="32" r="30" fill="#4a1a6b"/>
  <circle cx="32" cy="28" r="8" fill="#e8e6e3"/>
  <path d="M24 36 Q32 40 40 36 L42 48 L22 48 Z" fill="#4a1a6b"/>
  <rect x="24" y="16" width="16" height="6" rx="2" fill="#c9a227"/>
  <circle cx="32" cy="14" r="3" fill="#c41e3a"/>
  <path d="M24 22 L22 26 M40 22 L42 26" stroke="#c9a227" stroke-width="2"/>
  <circle cx="28" cy="18" r="1.5" fill="#c41e3a"/>
  <circle cx="36" cy="18" r="1.5" fill="#2a5a82"/>
</symbol>

<!-- Zhu Di (Ming): Dragon robe emperor -->
<symbol id="leader-zhu_di" viewBox="0 0 64 64">
  <circle cx="32" cy="32" r="30" fill="#8b0000"/>
  <circle cx="32" cy="26" r="8" fill="#e8e6e3"/>
  <path d="M22 34 Q32 38 42 34 L44 48 L20 48 Z" fill="#c9a227"/>
  <path d="M26 16 L24 12 M38 16 L40 12" stroke="#2a2a2a" stroke-width="2"/>
  <rect x="24" y="16" width="16" height="4" fill="#2a2a2a"/>
  <path d="M28 40 Q32 44 36 40" fill="none" stroke="#8b0000" stroke-width="2"/>
  <circle cx="32" cy="42" r="2" fill="#8b0000"/>
</symbol>

<!-- Jayavarman VII (Khmer): Angkorian crown -->
<symbol id="leader-jayavarman" viewBox="0 0 64 64">
  <circle cx="32" cy="32" r="30" fill="#2a5a82"/>
  <circle cx="32" cy="28" r="8" fill="#e8e6e3"/>
  <path d="M24 36 Q32 40 40 36 L42 48 L22 48 Z" fill="#c9a227"/>
  <path d="M28 20 L30 12 L32 8 L34 12 L36 20" fill="#c9a227"/>
  <path d="M26 20 L28 16 M38 20 L36 16" stroke="#c9a227" stroke-width="1.5"/>
  <circle cx="32" cy="10" r="2" fill="#e6c545"/>
</symbol>

<!-- Gajah Mada (Majapahit): Javanese headgear -->
<symbol id="leader-gajah_mada" viewBox="0 0 64 64">
  <circle cx="32" cy="32" r="30" fill="#8b0000"/>
  <circle cx="32" cy="28" r="8" fill="#e8e6e3"/>
  <path d="M24 36 Q32 40 40 36 L42 48 L22 48 Z" fill="#8b0000"/>
  <path d="M24 22 Q32 16 40 22" fill="#2a2a2a"/>
  <path d="M30 16 L32 10 L34 16" fill="#c9a227"/>
  <path d="M24 22 L22 24 M40 22 L42 24" stroke="#c9a227" stroke-width="1.5"/>
  <circle cx="32" cy="12" r="1.5" fill="#e6c545"/>
</symbol>

<!-- Gwanggaeto (Goguryeo): Goguryeo crown -->
<symbol id="leader-gwanggaeto" viewBox="0 0 64 64">
  <circle cx="32" cy="32" r="30" fill="#1a3a6b"/>
  <circle cx="32" cy="28" r="8" fill="#e8e6e3"/>
  <path d="M24 36 Q32 40 40 36 L42 48 L22 48 Z" fill="#1a3a6b"/>
  <rect x="24" y="16" width="16" height="5" fill="#c9a227"/>
  <path d="M26 16 L26 10 M30 16 L30 12 M34 16 L34 12 M38 16 L38 10" stroke="#c9a227" stroke-width="2"/>
  <circle cx="26" cy="9" r="1.5" fill="#e6c545"/>
  <circle cx="38" cy="9" r="1.5" fill="#e6c545"/>
</symbol>

<!-- Songtsen Gampo (Tibet): Tibetan king hat -->
<symbol id="leader-songtsen" viewBox="0 0 64 64">
  <circle cx="32" cy="32" r="30" fill="#5c3317"/>
  <circle cx="32" cy="28" r="8" fill="#e8e6e3"/>
  <path d="M24 36 Q32 40 40 36 L42 48 L22 48 Z" fill="#c41e3a"/>
  <path d="M24 20 Q32 10 40 20" fill="#c9a227"/>
  <path d="M32 10 L32 6" stroke="#c9a227" stroke-width="2"/>
  <circle cx="32" cy="5" r="2" fill="#e6c545"/>
  <path d="M22 22 L20 24 M42 22 L44 24" stroke="#c9a227" stroke-width="2"/>
</symbol>

</svg>
